<svg width="160" height="38" viewBox="0 0 160 38" fill="none" xmlns="http://www.w3.org/2000/svg">
<path d="M12.9702 37.48C10.6342 37.48 8.52219 36.968 6.63419 35.944C4.77819 34.888 3.32219 33.48 2.26619 31.72C1.21019 29.96 0.68219 28.024 0.68219 25.912V24.904H2.17019V25.672C2.17019 27.592 2.61819 29.352 3.51419 30.952C4.41019 32.552 5.67419 33.816 7.30619 34.744C8.97019 35.672 10.8422 36.136 12.9222 36.136C15.0342 36.136 16.9062 35.72 18.5382 34.888C20.2022 34.024 21.4822 32.84 22.3782 31.336C23.3062 29.832 23.7702 28.136 23.7702 26.248C23.7702 23.464 23.1302 21.144 21.8502 19.288C20.5702 17.4 18.6502 16.12 16.0902 15.448C17.4342 14.616 18.4422 13.608 19.1142 12.424C19.7862 11.208 20.1222 9.944 20.1222 8.632C20.1222 7.416 19.8342 6.296 19.2582 5.272C18.7142 4.216 17.9142 3.384 16.8582 2.776C15.8022 2.136 14.5702 1.816 13.1622 1.816C11.6902 1.816 10.3782 2.152 9.22619 2.824C8.07419 3.496 7.16219 4.408 6.49019 5.56C5.85019 6.712 5.49819 7.992 5.43419 9.4H3.89819C3.96219 7.736 4.37819 6.232 5.14619 4.888C5.91419 3.512 6.98619 2.44 8.36219 1.672C9.77019 0.871997 11.3702 0.471997 13.1622 0.471997C14.8582 0.471997 16.3462 0.855997 17.6262 1.624C18.9062 2.392 19.8982 3.416 20.6022 4.696C21.3062 5.944 21.6582 7.256 21.6582 8.632C21.6582 9.88 21.3862 11.064 20.8422 12.184C20.2982 13.304 19.4822 14.264 18.3942 15.064C20.6982 15.96 22.4262 17.368 23.5782 19.288C24.7622 21.208 25.3542 23.608 25.3542 26.488C25.3542 28.504 24.8262 30.36 23.7702 32.056C22.7142 33.72 21.2422 35.048 19.3542 36.04C17.4662 37 15.3382 37.48 12.9702 37.48ZM48.4838 37.96C45.1238 37.96 42.0038 37.08 39.1238 35.32C36.2438 33.56 33.9558 31.224 32.2598 28.312C30.5958 25.368 29.7638 22.216 29.7638 18.856C29.7638 15.528 30.6118 12.424 32.3078 9.544C34.0038 6.632 36.2918 4.328 39.1718 2.632C42.0518 0.903997 45.1718 0.0399971 48.5318 0.0399971C51.9238 0.0399971 55.0438 0.887998 57.8918 2.584C60.7398 4.28 62.9958 6.584 64.6598 9.496C66.3558 12.376 67.2038 15.496 67.2038 18.856C67.2038 22.312 66.3558 25.512 64.6598 28.456C62.9958 31.368 60.7238 33.688 57.8438 35.416C54.9958 37.112 51.8758 37.96 48.4838 37.96ZM48.4838 36.568C51.5558 36.568 54.4038 35.784 57.0278 34.216C59.6518 32.616 61.7318 30.472 63.2678 27.784C64.8358 25.064 65.6198 22.12 65.6198 18.952C65.6198 15.816 64.8518 12.904 63.3158 10.216C61.7798 7.528 59.6998 5.4 57.0758 3.832C54.4518 2.232 51.6038 1.432 48.5318 1.432C45.4278 1.432 42.5638 2.232 39.9398 3.832C37.3158 5.4 35.2198 7.528 33.6518 10.216C32.1158 12.904 31.3478 15.816 31.3478 18.952C31.3478 22.12 32.1158 25.064 33.6518 27.784C35.2198 30.472 37.3158 32.616 39.9398 34.216C42.5638 35.784 45.4118 36.568 48.4838 36.568ZM90.4369 37.96C87.0769 37.96 83.9569 37.08 81.0769 35.32C78.1969 33.56 75.9089 31.224 74.2129 28.312C72.5489 25.368 71.7169 22.216 71.7169 18.856C71.7169 15.528 72.5649 12.424 74.2609 9.544C75.9569 6.632 78.2449 4.328 81.1249 2.632C84.0049 0.903997 87.1249 0.0399971 90.4849 0.0399971C93.8769 0.0399971 96.9969 0.887998 99.8449 2.584C102.693 4.28 104.949 6.584 106.613 9.496C108.309 12.376 109.157 15.496 109.157 18.856C109.157 22.312 108.309 25.512 106.613 28.456C104.949 31.368 102.677 33.688 99.7969 35.416C96.9489 37.112 93.8289 37.96 90.4369 37.96ZM90.4369 36.568C93.5089 36.568 96.3569 35.784 98.9809 34.216C101.605 32.616 103.685 30.472 105.221 27.784C106.789 25.064 107.573 22.12 107.573 18.952C107.573 15.816 106.805 12.904 105.269 10.216C103.733 7.528 101.653 5.4 99.0289 3.832C96.4049 2.232 93.5569 1.432 90.4849 1.432C87.3809 1.432 84.5169 2.232 81.8929 3.832C79.2689 5.4 77.1729 7.528 75.6049 10.216C74.0689 12.904 73.3009 15.816 73.3009 18.952C73.3009 22.12 74.0689 25.064 75.6049 27.784C77.1729 30.472 79.2689 32.616 81.8929 34.216C84.5169 35.784 87.3649 36.568 90.4369 36.568ZM136.315 37L117.259 16.984V37H115.675V0.999996H117.259V14.056L132.283 0.999996H134.539L117.691 15.4L138.427 37H136.315ZM148.992 37.672C144.992 37.672 141.888 36.024 139.68 32.728V30.136C140.544 32.056 141.792 33.56 143.424 34.648C145.088 35.736 147.072 36.28 149.376 36.28C150.976 36.28 152.448 35.928 153.792 35.224C155.168 34.52 156.256 33.528 157.056 32.248C157.856 30.968 158.256 29.496 158.256 27.832C158.256 26.328 158 25.032 157.488 23.944C156.976 22.856 156.128 21.816 154.944 20.824C153.76 19.8 152.048 18.6 149.808 17.224L148.272 16.264C146.864 15.4 145.728 14.632 144.864 13.96C144 13.288 143.248 12.504 142.608 11.608C141.776 10.36 141.36 8.92 141.36 7.288C141.36 5.112 142.064 3.416 143.472 2.2C144.88 0.983998 146.672 0.375998 148.848 0.375998C151.792 0.375998 154.128 1.464 155.856 3.64V6.088C155.12 4.744 154.112 3.688 152.832 2.92C151.552 2.152 150.144 1.768 148.608 1.768C147.008 1.768 145.664 2.264 144.576 3.256C143.488 4.248 142.944 5.576 142.944 7.24C142.944 8.872 143.44 10.28 144.432 11.464C145.456 12.616 147.168 13.88 149.568 15.256C152.512 16.984 154.8 18.552 156.432 19.96C157.584 21.016 158.416 22.184 158.928 23.464C159.472 24.744 159.744 26.168 159.744 27.736C159.744 29.72 159.28 31.464 158.352 32.968C157.424 34.472 156.144 35.64 154.512 36.472C152.88 37.272 151.04 37.672 148.992 37.672Z" fill="#F4E3D7"/>
</svg>
